<svg width="36" height="36" viewBox="0 0 36 36" fill="none" xmlns="http://www.w3.org/2000/svg">
<g clip-path="url(#clip0_73_339)">
<path d="M1.41625e-06 3.6L1.57361e-07 32.4C7.04529e-08 34.3882 1.61177 36 3.6 36L32.4 36C34.3882 36 36 34.3882 36 32.4L36 3.6C36 1.61178 34.3882 1.50316e-06 32.4 1.41625e-06L3.6 1.57361e-07C1.61178 7.04529e-08 1.50316e-06 1.61177 1.41625e-06 3.6Z" fill="#161616"/>
<path d="M9.12839 10.2499L26.594 10.2499C27.9227 10.2499 28.9998 9.17287 28.9998 7.84423C28.9998 6.35617 27.6624 5.22499 26.1949 5.47186L8.97131 8.36943C8.5761 8.43592 8.26555 8.74403 8.19596 9.13871C8.09373 9.71844 8.53971 10.2499 9.12839 10.2499Z" fill="white"/>
<path d="M10.8171 18.4691L28.2155 15.2751C28.5343 15.2166 28.7832 14.966 28.8395 14.6468C28.9232 14.1718 28.5578 13.7363 28.0754 13.7363L10.3863 13.7363C9.06852 13.7363 8.00026 14.8045 8.00026 16.1223C8.00026 17.6126 9.3513 18.7382 10.8171 18.4691Z" fill="white"/>
<path d="M13.2501 26.0067C13.2501 28.9062 15.6006 31.2567 18.5001 31.2567C21.3995 31.2567 23.75 28.9062 23.75 26.0067C23.75 23.1073 21.3995 20.7568 18.5001 20.7568C15.6006 20.7568 13.2501 23.1073 13.2501 26.0067Z" fill="white"/>
</g>
<defs>
<clipPath id="clip0_73_339">
<rect width="36" height="36" fill="white" transform="translate(36) rotate(90)"/>
</clipPath>
</defs>
</svg>
